<?xml version="1.0" encoding="UTF-8"?>
<svg xmlns="http://www.w3.org/2000/svg" xmlns:xlink="http://www.w3.org/1999/xlink" width="40px" height="40px" viewBox="0 0 40 40" version="1.1">
<g id="surface3">
<path style=" stroke:none;fill-rule:nonzero;fill:rgb(38.82353%,35.686275%,100%);fill-opacity:1;" d="M 9.171875 0.457031 C 9.273438 0.457031 9.371094 0.457031 9.476562 0.457031 C 9.75 0.457031 10.027344 0.457031 10.300781 0.457031 C 10.601562 0.457031 10.898438 0.453125 11.195312 0.453125 C 11.78125 0.453125 12.363281 0.453125 12.945312 0.453125 C 13.421875 0.453125 13.894531 0.453125 14.371094 0.453125 C 15.71875 0.449219 17.066406 0.449219 18.414062 0.449219 C 18.523438 0.449219 18.523438 0.449219 18.632812 0.449219 C 18.707031 0.449219 18.777344 0.449219 18.851562 0.449219 C 20.027344 0.449219 21.207031 0.449219 22.382812 0.445312 C 23.589844 0.445312 24.800781 0.441406 26.011719 0.441406 C 26.691406 0.441406 27.367188 0.441406 28.046875 0.441406 C 28.625 0.4375 29.203125 0.4375 29.78125 0.441406 C 30.074219 0.441406 30.367188 0.441406 30.664062 0.4375 C 33.203125 0.425781 35.390625 0.851562 37.367188 2.554688 C 37.417969 2.597656 37.472656 2.644531 37.53125 2.6875 C 39.140625 4.015625 40.121094 6.105469 40.398438 8.144531 C 40.421875 8.488281 40.421875 8.828125 40.421875 9.171875 C 40.421875 9.273438 40.421875 9.371094 40.421875 9.476562 C 40.421875 9.75 40.421875 10.027344 40.421875 10.300781 C 40.421875 10.601562 40.421875 10.898438 40.425781 11.195312 C 40.425781 11.78125 40.425781 12.363281 40.425781 12.945312 C 40.425781 13.421875 40.425781 13.894531 40.425781 14.371094 C 40.429688 15.71875 40.429688 17.066406 40.429688 18.414062 C 40.429688 18.484375 40.429688 18.558594 40.429688 18.632812 C 40.429688 18.707031 40.429688 18.777344 40.429688 18.851562 C 40.429688 20.027344 40.429688 21.207031 40.433594 22.382812 C 40.433594 23.589844 40.4375 24.800781 40.4375 26.011719 C 40.4375 26.691406 40.4375 27.367188 40.4375 28.046875 C 40.4375 28.625 40.441406 29.203125 40.4375 29.78125 C 40.4375 30.074219 40.4375 30.367188 40.4375 30.664062 C 40.449219 33.203125 40.023438 35.390625 38.324219 37.367188 C 38.28125 37.417969 38.234375 37.472656 38.191406 37.53125 C 36.863281 39.140625 34.773438 40.121094 32.734375 40.398438 C 32.390625 40.421875 32.050781 40.421875 31.707031 40.421875 C 31.605469 40.421875 31.503906 40.421875 31.402344 40.421875 C 31.125 40.421875 30.851562 40.421875 30.574219 40.421875 C 30.277344 40.421875 29.980469 40.421875 29.683594 40.425781 C 29.097656 40.425781 28.515625 40.425781 27.933594 40.425781 C 27.457031 40.425781 26.984375 40.425781 26.507812 40.425781 C 25.160156 40.429688 23.8125 40.429688 22.464844 40.429688 C 22.355469 40.429688 22.355469 40.429688 22.246094 40.429688 C 22.171875 40.429688 22.101562 40.429688 22.023438 40.429688 C 20.847656 40.429688 19.671875 40.429688 18.496094 40.433594 C 17.285156 40.433594 16.078125 40.4375 14.867188 40.4375 C 14.1875 40.4375 13.507812 40.4375 12.832031 40.4375 C 12.253906 40.4375 11.675781 40.441406 11.097656 40.4375 C 10.804688 40.4375 10.507812 40.4375 10.214844 40.4375 C 7.675781 40.449219 5.488281 40.023438 3.511719 38.324219 C 3.457031 38.28125 3.402344 38.234375 3.347656 38.191406 C 1.738281 36.863281 0.757812 34.773438 0.480469 32.734375 C 0.457031 32.390625 0.457031 32.050781 0.457031 31.707031 C 0.457031 31.605469 0.457031 31.503906 0.457031 31.402344 C 0.457031 31.125 0.457031 30.851562 0.457031 30.574219 C 0.457031 30.277344 0.453125 29.980469 0.453125 29.683594 C 0.453125 29.097656 0.453125 28.515625 0.453125 27.933594 C 0.453125 27.457031 0.453125 26.984375 0.453125 26.507812 C 0.449219 25.160156 0.449219 23.8125 0.449219 22.464844 C 0.449219 22.394531 0.449219 22.320312 0.449219 22.246094 C 0.449219 22.171875 0.449219 22.101562 0.449219 22.023438 C 0.449219 20.847656 0.449219 19.671875 0.445312 18.496094 C 0.445312 17.285156 0.441406 16.078125 0.441406 14.867188 C 0.441406 14.1875 0.441406 13.507812 0.441406 12.832031 C 0.4375 12.253906 0.4375 11.675781 0.441406 11.097656 C 0.441406 10.804688 0.441406 10.507812 0.4375 10.214844 C 0.425781 7.675781 0.851562 5.488281 2.554688 3.511719 C 2.621094 3.429688 2.621094 3.429688 2.6875 3.347656 C 4.246094 1.457031 6.765625 0.453125 9.171875 0.457031 Z M 9.171875 0.457031 "/>
<path style=" stroke:none;fill-rule:nonzero;fill:rgb(99.607843%,99.607843%,100%);fill-opacity:1;" d="M 20.9375 10.191406 C 21.003906 10.191406 21.066406 10.191406 21.132812 10.191406 C 22.117188 10.195312 23.070312 10.242188 24.03125 10.460938 C 24.085938 10.472656 24.140625 10.484375 24.199219 10.496094 C 25.011719 10.675781 25.792969 10.929688 26.585938 11.175781 C 26.585938 12.917969 26.585938 14.65625 26.585938 16.445312 C 26.304688 16.390625 26.109375 16.34375 25.851562 16.234375 C 25.789062 16.207031 25.726562 16.179688 25.660156 16.152344 C 25.59375 16.125 25.527344 16.097656 25.460938 16.066406 C 24.679688 15.746094 23.898438 15.511719 23.074219 15.328125 C 22.984375 15.308594 22.898438 15.289062 22.808594 15.269531 C 22.265625 15.167969 21.726562 15.152344 21.175781 15.148438 C 21.109375 15.148438 21.039062 15.148438 20.964844 15.148438 C 20.363281 15.152344 19.738281 15.191406 19.242188 15.570312 C 19.003906 15.925781 19.023438 16.269531 19.082031 16.6875 C 19.410156 17.402344 20.46875 17.6875 21.148438 17.941406 C 21.46875 18.058594 21.792969 18.171875 22.117188 18.289062 C 24.097656 18.992188 26.125 19.742188 27.191406 21.703125 C 27.820312 23.105469 27.929688 24.875 27.464844 26.347656 C 27.175781 27.078125 26.796875 27.757812 26.265625 28.34375 C 26.226562 28.390625 26.1875 28.4375 26.148438 28.484375 C 24.917969 29.839844 22.777344 30.535156 20.996094 30.660156 C 18.3125 30.78125 15.9375 30.410156 13.414062 29.460938 C 13.414062 27.695312 13.414062 25.929688 13.414062 24.113281 C 13.695312 24.207031 13.953125 24.292969 14.21875 24.410156 C 15.976562 25.171875 17.667969 25.71875 19.597656 25.734375 C 19.691406 25.734375 19.785156 25.738281 19.878906 25.742188 C 20.511719 25.746094 21.019531 25.679688 21.527344 25.289062 C 21.75 25.066406 21.824219 24.859375 21.839844 24.554688 C 21.8125 24.121094 21.667969 23.808594 21.347656 23.515625 C 20.511719 22.894531 19.414062 22.574219 18.441406 22.226562 C 17.683594 21.953125 16.945312 21.671875 16.234375 21.296875 C 16.175781 21.265625 16.113281 21.234375 16.054688 21.203125 C 15.652344 20.984375 15.289062 20.722656 14.929688 20.4375 C 14.863281 20.386719 14.796875 20.335938 14.730469 20.285156 C 13.882812 19.566406 13.304688 18.527344 13.1875 17.417969 C 13.042969 15.535156 13.378906 13.902344 14.628906 12.441406 C 16.253906 10.710938 18.648438 10.167969 20.9375 10.191406 Z M 20.9375 10.191406 "/>
</g>
</svg>
